<?xml version="1.0" encoding="UTF-8"?>
<svg version="1.1" xmlns="http://www.w3.org/2000/svg" width="500" height="500">
<path d="M0 0 C165 0 330 0 500 0 C500 165 500 330 500 500 C335 500 170 500 0 500 C0 335 0 170 0 0 Z " fill="#FEFEFE" transform="translate(0,0)"/>
<path d="M0 0 C1.9196429 1.02261351 3.73008167 2.14631386 5.55639648 3.32739258 C7.03301616 4.23826796 8.51097426 5.14697582 9.98999023 6.05395508 C10.79807129 6.55443359 11.60615234 7.05491211 12.4387207 7.57055664 C17.60569168 10.71648796 22.87114662 13.69394018 28.11889648 16.70239258 C30.35099243 17.99089205 32.58276832 19.27994611 34.81420898 20.56958008 C38.6753685 22.7987391 42.54390586 25.01345835 46.42358398 27.21020508 C47.94712786 28.08241512 49.47057368 28.95479648 50.99389648 29.82739258 C51.6706543 30.20444336 52.34741211 30.58149414 53.04467773 30.9699707 C57.61873483 33.60884979 60.74599045 36.45658051 63.11889648 41.20239258 C63.226528 43.50877558 63.26782796 45.81833646 63.2800293 48.12719727 C63.2849942 48.83961578 63.28995911 49.5520343 63.29507446 50.28604126 C63.30970814 52.64879313 63.3165011 55.01147779 63.32202148 57.37426758 C63.32777325 59.01613365 63.33353098 60.65799969 63.33929443 62.29986572 C63.34980875 65.74654453 63.35564816 69.19319999 63.35913086 72.63989258 C63.36460751 77.04940507 63.38861578 81.4586075 63.41710281 85.86802292 C63.43576075 89.26187021 63.44093653 92.65564342 63.44246674 96.04953766 C63.44548817 97.67459045 63.45349953 99.29964209 63.46665192 100.92464447 C63.483774 103.20333639 63.48181719 105.48127899 63.4753418 107.76000977 C63.48081024 109.70287872 63.48081024 109.70287872 63.48638916 111.68499756 C63.08431007 115.53343072 62.14247773 117.92373571 60.11889648 121.20239258 C57.45678711 123.26586914 57.45678711 123.26586914 54.27514648 125.09301758 C53.70235962 125.42771057 53.12957275 125.76240356 52.53942871 126.10723877 C50.74068788 127.15379783 48.93052951 128.17835143 47.11889648 129.20239258 C46.01416992 129.84370117 44.90944336 130.48500977 43.77124023 131.14575195 C39.18135389 133.8037676 34.56653382 136.417084 29.94897461 139.02661133 C28.71379658 139.72556156 27.47877026 140.42477995 26.24389648 141.12426758 C25.63791626 141.46735962 25.03193604 141.81045166 24.40759277 142.16394043 C20.57920737 144.34187898 16.80676428 146.59471019 13.05639648 148.90551758 C12.13149414 149.46529297 11.2065918 150.02506836 10.25366211 150.60180664 C8.56217131 151.62936536 6.88244035 152.67668471 5.21850586 153.74829102 C-1.03949902 157.50467558 -6.65133262 158.32386686 -13.88110352 157.20239258 C-16.82335581 156.1636518 -19.207654 154.7351895 -21.75610352 152.95239258 C-22.36711914 152.55665039 -22.97813477 152.1609082 -23.60766602 151.75317383 C-24.80555062 150.97250117 -25.99453785 150.17796284 -27.1730957 149.3684082 C-28.32068132 148.58497926 -29.48342052 147.8233397 -30.65942383 147.08325195 C-32.09988441 146.1735762 -33.49564265 145.19382329 -34.88110352 144.20239258 C-34.88110352 143.54239258 -34.88110352 142.88239258 -34.88110352 142.20239258 C-33.47146881 141.50058727 -32.05302711 140.816453 -30.63110352 140.13989258 C-29.84219727 139.75704102 -29.05329102 139.37418945 -28.24047852 138.97973633 C-25.46769865 138.06618799 -24.56026462 138.10545303 -21.88110352 139.20239258 C-18.85478613 140.99795136 -15.90564725 142.89239369 -12.95141602 144.80395508 C-9.22863539 146.49957271 -7.80259703 146.15763599 -3.88110352 145.20239258 C-1.17344422 143.97565082 -1.17344422 143.97565082 1.47827148 142.35083008 C2.49977295 141.75359131 3.52127441 141.15635254 4.57373047 140.54101562 C5.66113525 139.89302002 6.74854004 139.24502441 7.86889648 138.57739258 C9.59445036 137.56461297 11.32001381 136.5518493 13.04612732 135.5400238 C14.84750642 134.48269561 16.64657249 133.4215043 18.44555664 132.36010742 C22.11899967 130.19713382 25.80959788 128.064792 29.50561523 125.94067383 C30.10078949 125.59854858 30.69596375 125.25642334 31.30917358 124.90393066 C33.05809621 123.89898702 34.80724166 122.89443201 36.55639648 121.88989258 C38.72246151 120.6450168 40.88788197 119.39901843 43.05249023 118.15161133 C44.41458618 117.36790161 44.41458618 117.36790161 45.80419922 116.56835938 C47.61015849 115.50261292 49.37410777 114.36558505 51.11889648 113.20239258 C51.55958682 110.17010642 51.55958682 110.17010642 51.45947266 106.54956055 C51.45991074 105.86651855 51.46034882 105.18347656 51.46080017 104.47973633 C51.45870692 102.21772869 51.43535191 99.95645852 51.41186523 97.69458008 C51.40627115 96.12802536 51.40200017 94.5614654 51.39900208 92.99490356 C51.3875384 88.86836296 51.35805844 84.74213829 51.32489014 80.61572266 C51.29422186 76.40637486 51.2805037 72.1969761 51.26538086 67.98754883 C51.23318992 59.72568497 51.18197552 51.46407805 51.11889648 43.20239258 C50.3469545 42.76156342 49.57501251 42.32073425 48.77967834 41.86654663 C19.96086676 25.40774969 19.96086676 25.40774969 8.55639648 18.82739258 C7.4677832 18.2009082 6.37916992 17.57442383 5.25756836 16.92895508 C4.22051758 16.33083008 3.1834668 15.73270508 2.11499023 15.11645508 C1.21965576 14.60034668 0.32432129 14.08423828 -0.59814453 13.55249023 C-2.39298415 12.4910569 -4.14610607 11.35905754 -5.88110352 10.20239258 C-9.76428152 10.54390725 -12.63433887 11.96605477 -15.99438477 13.87036133 C-16.98390137 14.42739746 -17.97341797 14.98443359 -18.99291992 15.55834961 C-20.04914551 16.16275879 -21.10537109 16.76716797 -22.19360352 17.38989258 C-23.83594971 18.31970947 -23.83594971 18.31970947 -25.51147461 19.26831055 C-36.15546614 25.31295247 -46.73055942 31.47738583 -57.2800293 37.68530273 C-60.46873847 39.54513367 -63.67405901 41.37436246 -66.88110352 43.20239258 C-67.27650734 52.15528028 -67.57774249 61.10513273 -67.76191044 70.06487083 C-67.85035347 74.22665739 -67.97001804 78.38244219 -68.16357422 82.54077148 C-69.75110625 99.71072638 -69.75110625 99.71072638 -65.30267334 115.72009277 C-59.0490317 121.89506614 -51.3303224 123.43776843 -42.82655334 123.69052124 C-40.74618412 123.33353793 -40.74618412 123.33353793 -39.15029907 121.60592651 C-37.45259911 118.3909141 -37.4813961 115.95492822 -37.44873047 112.32250977 C-37.43853882 111.63917572 -37.42834717 110.95584167 -37.41784668 110.25180054 C-37.38773515 108.00087262 -37.37845399 105.75037038 -37.36938477 103.49926758 C-37.35253663 101.93555285 -37.3343862 100.37185166 -37.31498718 98.8081665 C-37.26749529 94.6982852 -37.23768087 90.58845877 -37.21154785 86.47839355 C-37.18173812 82.28211633 -37.13520924 78.08602815 -37.09008789 73.88989258 C-37.00406406 65.6608188 -36.93671487 57.4317278 -36.88110352 49.20239258 C-33.25110352 49.20239258 -29.62110352 49.20239258 -25.88110352 49.20239258 C-25.78813237 58.43452224 -25.71720179 67.66648898 -25.67385483 76.89898586 C-25.65304294 81.18673256 -25.62484359 85.4741573 -25.5793457 89.76171875 C-25.53565781 93.90497534 -25.51191836 98.04792362 -25.50159454 102.1913929 C-25.49424408 103.76654979 -25.47989084 105.34169116 -25.45818329 106.91671562 C-25.23617027 123.70364528 -25.23617027 123.70364528 -29.88110352 130.20239258 C-33.89706258 134.07147146 -37.82679272 135.5620955 -43.38110352 136.01489258 C-54.49467197 135.55006652 -68.77781258 127.45239497 -76.46105957 119.5844574 C-78.40315851 116.32666697 -78.31629837 113.35267793 -78.30102539 109.66748047 C-78.30949493 108.91414932 -78.31796448 108.16081818 -78.32669067 107.38465881 C-78.35006248 104.89794975 -78.35108284 102.41185935 -78.34985352 99.92504883 C-78.35695493 98.19396212 -78.3646539 96.46287778 -78.3729248 94.73179626 C-78.38636995 91.10449683 -78.38793823 87.47741504 -78.38208008 83.85009766 C-78.37618342 79.20485348 -78.40677323 74.56065426 -78.44719696 69.91561222 C-78.47306357 66.34075813 -78.47595236 62.76615601 -78.4723053 59.19122124 C-78.47399749 57.4788087 -78.4836496 55.76638465 -78.50144958 54.0540638 C-78.52362063 51.65756693 -78.51394939 49.26318968 -78.49633789 46.86669922 C-78.50960114 46.16160217 -78.52286438 45.45650513 -78.53652954 44.7300415 C-78.47130268 40.90448331 -77.98964795 39.3337645 -75.52124023 36.34623718 C-72.75255097 34.0980053 -69.97283103 32.20613532 -66.91235352 30.37426758 C-66.34859009 30.03506287 -65.78482666 29.69585815 -65.20397949 29.34637451 C-57.77956796 24.90215557 -50.24904417 20.63990416 -42.71777344 16.38037109 C-41.48432552 15.68195306 -40.25100827 14.98330421 -39.01782227 14.28442383 C-38.4124614 13.94153824 -37.80710052 13.59865265 -37.18339539 13.24537659 C-33.32006584 11.04776588 -29.50668717 8.7809789 -25.71313477 6.46411133 C-24.77469727 5.89982422 -23.83625977 5.33553711 -22.86938477 4.75415039 C-21.14044936 3.71111016 -19.42202418 2.65035348 -17.71704102 1.56860352 C-11.53812377 -2.11972687 -6.73702612 -2.85656902 0 0 Z " fill="#57A047" transform="translate(406.881103515625,171.797607421875)"/>
<path d="M0 0 C7.59 0 15.18 0 23 0 C24.9571967 5.87159011 26.74512718 11.57412723 28.1875 17.5625 C28.45336914 18.6462793 28.45336914 18.6462793 28.72460938 19.75195312 C29.15305929 21.50049198 29.57702497 23.25012869 30 25 C31.5522417 22.12948363 32.50025617 19.44078741 33.25390625 16.26953125 C33.46853516 15.38458984 33.68316406 14.49964844 33.90429688 13.58789062 C34.12150391 12.67201172 34.33871094 11.75613281 34.5625 10.8125 C34.99812279 8.98491634 35.43676172 7.15804808 35.87890625 5.33203125 C36.16616577 4.12123901 36.16616577 4.12123901 36.45922852 2.88598633 C37 1 37 1 38 0 C45.59 0 53.18 0 61 0 C61 19.8 61 39.6 61 60 C55.72 60 50.44 60 45 60 C44.67 53.4 44.34 46.8 44 40 C42.35 46.6 40.7 53.2 39 60 C33.39 60 27.78 60 22 60 C18.125 46.75 18.125 46.75 17 40 C16.67 46.6 16.34 53.2 16 60 C10.72 60 5.44 60 0 60 C0 40.2 0 20.4 0 0 Z " fill="#FDFEFD" transform="translate(205,217)"/>
<path d="M0 0 C0.73798828 -0.01611328 1.47597656 -0.03222656 2.23632812 -0.04882812 C7.91494507 -0.05387578 12.04609514 1.04343408 16.390625 4.9609375 C21.7938747 11.52202642 22.81545261 15.83858766 22.5625 24.3125 C18.6025 24.6425 14.6425 24.9725 10.5625 25.3125 C11.820625 26.055 13.07875 26.7975 14.375 27.5625 C18.68288496 30.25683087 20.93509349 32.43028048 22.5625 37.3125 C23.24913013 44.28010742 23.15347095 50.70413936 18.5625 56.3125 C10.5937729 62.74199611 2.44906891 63.04109054 -7.4375 62.3125 C-13.24459132 60.84678697 -17.2097548 58.47689231 -20.4375 53.3125 C-23.1914312 48.6930025 -22.57630585 44.58712225 -22.4375 39.3125 C-17.1575 39.3125 -11.8775 39.3125 -6.4375 39.3125 C-5.7775 41.6225 -5.1175 43.9325 -4.4375 46.3125 C0.09390653 47.24630961 0.09390653 47.24630961 4.5625 46.3125 C4.8925 44.3325 5.2225 42.3525 5.5625 40.3125 C4.34433594 40.08175781 3.12617187 39.85101563 1.87109375 39.61328125 C0.2472142 39.2847507 -1.37647394 38.95527303 -3 38.625 C-3.79986328 38.47611328 -4.59972656 38.32722656 -5.42382812 38.17382812 C-12.15837089 36.77194371 -17.10996937 34.39084696 -21.375 28.75 C-23.13467132 23.05694573 -23.61203559 16.85505089 -21.7109375 11.12109375 C-16.91733426 2.09898683 -9.44256681 -0.04101897 0 0 Z " fill="#FBFDFB" transform="translate(98.4375,215.6875)"/>
<path d="M0 0 C4.91350638 5.32701929 6.13686362 9.74622792 6 17 C2.7 17 -0.6 17 -4 17 C-4.81380208 15.01432292 -5.62760417 13.02864583 -6.44140625 11.04296875 C-8.71523769 8.06248292 -11.47677265 6.94785603 -15 6 C-17.91231482 5.63422329 -20.75620385 5.62316075 -23.6875 5.6875 C-24.43322266 5.68427734 -25.17894531 5.68105469 -25.94726562 5.67773438 C-29.72941641 5.71484736 -32.85965567 5.75008241 -36 8 C-37.35439668 10.70879335 -37.06501451 13.00933268 -37 16 C-30.54971321 18.43913451 -24.39404267 19.64621121 -17.5625 20.4375 C-0.21556835 22.70600315 -0.21556835 22.70600315 5.5625 28.625 C8.77540055 33.93327048 8.56434334 38.87844243 8 45 C6.41189034 49.87653239 3.32099724 53.31137949 -1 56 C-7.81277417 59.01884491 -14.18675713 59.4618302 -21.5625 59.375 C-22.55185547 59.38660156 -23.54121094 59.39820313 -24.56054688 59.41015625 C-32.84709838 59.37716401 -39.73859052 57.65935956 -46.45703125 52.5859375 C-50.06298274 48.87956711 -51.78426907 44.0710169 -52.3125 39 C-52 37 -52 37 -51 36 C-49.31391034 35.92794489 -47.62499341 35.91613932 -45.9375 35.9375 C-45.01839844 35.94652344 -44.09929687 35.95554687 -43.15234375 35.96484375 C-42.44207031 35.97644531 -41.73179687 35.98804688 -41 36 C-40.74605469 36.62648438 -40.49210937 37.25296875 -40.23046875 37.8984375 C-39.88628906 38.71570313 -39.54210937 39.53296875 -39.1875 40.375 C-38.85105469 41.18710937 -38.51460938 41.99921875 -38.16796875 42.8359375 C-37.05560918 45.30147458 -37.05560918 45.30147458 -34 47 C-25.80331097 49.18857173 -14.95633115 49.22041975 -7 46 C-4.46952125 43.94904119 -4.0535528 43.32131679 -3.5 40 C-3.69536665 36.91054905 -3.69536665 36.91054905 -5.9375 35.25 C-12.02512398 32.76525552 -17.89161941 31.95571544 -24.4375 31.5625 C-32.95829146 30.96594517 -40.31207707 29.6658452 -46.66015625 23.6015625 C-49.5374885 20.16218576 -49.92410868 16.84998281 -50.3125 12.5 C-49.81890431 6.97172827 -47.86021054 3.56654983 -43.875 -0.1875 C-32.04586956 -9.53791224 -12.16987744 -8.47730779 0 0 Z " fill="#57A047" transform="translate(438,224)"/>
<path d="M0 0 C5.28 0 10.56 0 16 0 C16.495 6.93 16.495 6.93 17 14 C17.42925781 12.989375 17.85851562 11.97875 18.30078125 10.9375 C20.31902606 6.80202002 22.29540295 2.85452796 26 0 C32.15533411 -1.78153106 38.74239731 -0.80209353 45 0 C43.13669746 6.00529355 38.90420354 10.70554294 35.08007812 15.5859375 C34.54447266 16.3078125 34.00886719 17.0296875 33.45703125 17.7734375 C32.96178955 18.41716309 32.46654785 19.06088867 31.95629883 19.72412109 C30.11405362 24.10844834 31.63259943 28.06739419 33.30688477 32.31738281 C33.84627686 33.43467773 34.38566895 34.55197266 34.94140625 35.703125 C35.22853989 36.3075946 35.51567352 36.91206421 35.81150818 37.53485107 C36.71964642 39.4442929 37.63996879 41.34747555 38.5625 43.25 C39.48725992 45.16737888 40.40915002 47.08596435 41.32420349 49.00799561 C42.15032888 50.74190973 42.98617035 52.47118469 43.82250977 54.20019531 C45 57 45 57 45 60 C39.06 60 33.12 60 27 60 C23.04 50.595 23.04 50.595 19 41 C18.01 41.495 18.01 41.495 17 42 C16.67 47.94 16.34 53.88 16 60 C10.72 60 5.44 60 0 60 C0 40.2 0 20.4 0 0 Z " fill="#FCFDFC" transform="translate(131,217)"/>
<path d="M0 0 C7.26 0 14.52 0 22 0 C22.43570313 1.80339844 22.87140625 3.60679687 23.3203125 5.46484375 C23.60575928 6.64618896 23.89120605 7.82753418 24.18530273 9.04467773 C24.81626248 11.65717354 25.44586364 14.2699919 26.07446289 16.88305664 C27.63182157 23.35373477 29.19912995 29.82134527 30.80078125 36.28125 C31.21529541 37.9674646 31.21529541 37.9674646 31.63818359 39.68774414 C32.16034707 41.81068796 32.68778949 43.93234223 33.22119141 46.05249023 C33.45628418 47.01356689 33.69137695 47.97464355 33.93359375 48.96484375 C34.14040771 49.7962085 34.34722168 50.62757324 34.56030273 51.48413086 C35 54 35 54 35 60 C29.39 60 23.78 60 18 60 C16 52 16 52 16 48 C12.7 48 9.4 48 6 48 C5.34 51.96 4.68 55.92 4 60 C-1.94 60 -7.88 60 -14 60 C-12.87501703 51.00013626 -12.87501703 51.00013626 -12.1237793 48.04101562 C-11.95657883 47.37251587 -11.78937836 46.70401611 -11.61711121 46.01525879 C-11.4379567 45.31928589 -11.25880219 44.62331299 -11.07421875 43.90625 C-10.88535599 43.15645874 -10.69649323 42.40666748 -10.50190735 41.63415527 C-9.90156641 39.25494806 -9.29471262 36.87746163 -8.6875 34.5 C-8.29187459 32.93761214 -7.89668923 31.37511278 -7.50195312 29.8125 C-6.72272153 26.7299106 -5.94111951 23.6479376 -5.15771484 20.56640625 C-3.41810192 13.71602561 -1.71051014 6.85769741 0 0 Z " fill="#FDFEFD" transform="translate(34,217)"/>
<path d="M0 0 C12.87 0 25.74 0 39 0 C39 4.62 39 9.24 39 14 C31.41 14 23.82 14 16 14 C16 16.64 16 19.28 16 22 C22.27 22 28.54 22 35 22 C35 26.62 35 31.24 35 36 C28.73 36 22.46 36 16 36 C16 39.3 16 42.6 16 46 C23.59 46 31.18 46 39 46 C39 50.62 39 55.24 39 60 C26.13 60 13.26 60 0 60 C0 40.2 0 20.4 0 0 Z " fill="#FDFEFD" transform="translate(277,217)"/>
<path d="M0 0 C7.59 0 15.18 0 23 0 C24.9571967 5.87159011 26.74512718 11.57412723 28.1875 17.5625 C28.45336914 18.6462793 28.45336914 18.6462793 28.72460938 19.75195312 C29.15305929 21.50049198 29.57702497 23.25012869 30 25 C31.5522417 22.12948363 32.50025617 19.44078741 33.25390625 16.26953125 C33.46853516 15.38458984 33.68316406 14.49964844 33.90429688 13.58789062 C34.12150391 12.67201172 34.33871094 11.75613281 34.5625 10.8125 C34.99812279 8.98491634 35.43676172 7.15804808 35.87890625 5.33203125 C36.16616577 4.12123901 36.16616577 4.12123901 36.45922852 2.88598633 C37 1 37 1 38 0 C45.59 0 53.18 0 61 0 C61 19.8 61 39.6 61 60 C55.72 60 50.44 60 45 60 C44.67 53.4 44.34 46.8 44 40 C42.35 46.6 40.7 53.2 39 60 C33.39 60 27.78 60 22 60 C18.125 46.75 18.125 46.75 17 40 C16.67 46.6 16.34 53.2 16 60 C10.72 60 5.44 60 0 60 C0 40.2 0 20.4 0 0 Z M2 2 C2 20.48 2 38.96 2 58 C5.96 58 9.92 58 14 58 C14 47.11 14 36.22 14 25 C14.66 25 15.32 25 16 25 C16.24234375 26.12535156 16.4846875 27.25070313 16.734375 28.41015625 C18.89759897 38.35358715 21.28073243 48.19327973 24 58 C28.29 58 32.58 58 37 58 C38.14240793 53.62254197 39.28165877 49.24427929 40.41796875 44.86523438 C40.80511817 43.37509885 41.19313521 41.88518846 41.58203125 40.39550781 C42.14029574 38.25644335 42.69545326 36.11659336 43.25 33.9765625 C43.42499023 33.30879791 43.59998047 32.64103333 43.78027344 31.95303345 C44.6934903 28.5210386 44.6934903 28.5210386 45 25 C45.66 25 46.32 25 47 25 C47 35.89 47 46.78 47 58 C50.96 58 54.92 58 59 58 C59 39.52 59 21.04 59 2 C52.4 2 45.8 2 39 2 C37.99867827 5.9133288 37.00029928 9.82723095 36.00927734 13.74316406 C35.67146625 15.07432762 35.33196479 16.40506342 34.99072266 17.73535156 C34.49975601 19.6505509 34.01542258 21.56744681 33.53125 23.484375 C33.23798828 24.63647461 32.94472656 25.78857422 32.64257812 26.97558594 C31.86145016 30.13679024 31.86145016 30.13679024 32 34 C31.01 34 30.02 34 29 34 C28.86335938 33.12891602 28.72671875 32.25783203 28.5859375 31.36035156 C28.04767933 28.27344094 27.38303704 25.27365522 26.625 22.234375 C26.23054688 20.65269531 26.23054688 20.65269531 25.828125 19.0390625 C25.55484375 17.95367187 25.2815625 16.86828125 25 15.75 C24.72671875 14.64914063 24.4534375 13.54828125 24.171875 12.4140625 C23.90890625 11.36476562 23.6459375 10.31546875 23.375 9.234375 C23.13523438 8.27756836 22.89546875 7.32076172 22.6484375 6.33496094 C22.08090239 4.00215988 22.08090239 4.00215988 21 2 C14.73 2 8.46 2 2 2 Z " fill="#65A857" transform="translate(205,217)"/>
<path d="M0 0 C0.73798828 -0.01611328 1.47597656 -0.03222656 2.23632812 -0.04882812 C7.91494507 -0.05387578 12.04609514 1.04343408 16.390625 4.9609375 C21.7938747 11.52202642 22.81545261 15.83858766 22.5625 24.3125 C18.6025 24.6425 14.6425 24.9725 10.5625 25.3125 C11.820625 26.055 13.07875 26.7975 14.375 27.5625 C18.68288496 30.25683087 20.93509349 32.43028048 22.5625 37.3125 C23.24913013 44.28010742 23.15347095 50.70413936 18.5625 56.3125 C10.5937729 62.74199611 2.44906891 63.04109054 -7.4375 62.3125 C-13.24459132 60.84678697 -17.2097548 58.47689231 -20.4375 53.3125 C-23.1914312 48.6930025 -22.57630585 44.58712225 -22.4375 39.3125 C-17.1575 39.3125 -11.8775 39.3125 -6.4375 39.3125 C-5.7775 41.6225 -5.1175 43.9325 -4.4375 46.3125 C0.09390653 47.24630961 0.09390653 47.24630961 4.5625 46.3125 C4.8925 44.3325 5.2225 42.3525 5.5625 40.3125 C4.34433594 40.08175781 3.12617187 39.85101563 1.87109375 39.61328125 C0.2472142 39.2847507 -1.37647394 38.95527303 -3 38.625 C-3.79986328 38.47611328 -4.59972656 38.32722656 -5.42382812 38.17382812 C-12.15837089 36.77194371 -17.10996937 34.39084696 -21.375 28.75 C-23.13467132 23.05694573 -23.61203559 16.85505089 -21.7109375 11.12109375 C-16.91733426 2.09898683 -9.44256681 -0.04101897 0 0 Z M-17.4375 8.3125 C-20.93818131 13.38245225 -21.25024621 18.34921092 -20.4375 24.3125 C-19.3856752 28.00791112 -17.83691947 30.37754303 -14.625 32.5234375 C-9.08747935 35.23112223 -3.18594416 36.36922572 2.83984375 37.50390625 C5.5625 38.3125 5.5625 38.3125 7.5625 41.3125 C7.9375 43.8125 7.9375 43.8125 7.5625 46.3125 C6 48.125 6 48.125 3.5625 49.3125 C-0.1816664 49.57524852 -2.87278609 49.50073797 -6.4375 48.3125 C-7.625 44.75 -7.625 44.75 -8.4375 41.3125 C-12.3975 41.3125 -16.3575 41.3125 -20.4375 41.3125 C-20.06216113 47.50559134 -19.61177432 51.44251329 -15.4375 56.3125 C-8.9781166 60.99555297 -2.17242219 60.84627757 5.5625 60.3125 C10.29110305 59.42545039 13.56944252 58.30555748 17 54.875 C20.65841369 48.87520155 21.36044795 44.36104022 20.5625 37.3125 C18.45942604 32.4929555 15.70615456 30.30091351 11.05859375 28.18359375 C6.90341333 26.73350731 2.63274834 25.87391789 -1.6796875 25.0234375 C-4.4375 24.3125 -4.4375 24.3125 -6.4375 22.3125 C-6.6328125 20.1484375 -6.6328125 20.1484375 -6.5625 17.6875 C-6.54445313 16.87023437 -6.52640625 16.05296875 -6.5078125 15.2109375 C-6.48460938 14.58445313 -6.46140625 13.95796875 -6.4375 13.3125 C-4.83417209 13.23128076 -3.22965974 13.17320866 -1.625 13.125 C-0.28501953 13.07279297 -0.28501953 13.07279297 1.08203125 13.01953125 C3.5625 13.3125 3.5625 13.3125 5.32421875 14.51171875 C6.5625 16.3125 6.5625 16.3125 7.5625 21.3125 C11.5225 21.3125 15.4825 21.3125 19.5625 21.3125 C20.07678958 15.55245675 19.59482859 11.80852312 16.23046875 7.01171875 C11.83869337 2.53766186 5.92790278 2.15634293 -0.0625 2 C-6.9429854 2.22102118 -12.43509297 3.31009297 -17.4375 8.3125 Z " fill="#67A959" transform="translate(98.4375,215.6875)"/>
<path d="M0 0 C5.28 0 10.56 0 16 0 C16.495 6.93 16.495 6.93 17 14 C17.42925781 12.989375 17.85851562 11.97875 18.30078125 10.9375 C20.31902606 6.80202002 22.29540295 2.85452796 26 0 C32.15533411 -1.78153106 38.74239731 -0.80209353 45 0 C43.13669746 6.00529355 38.90420354 10.70554294 35.08007812 15.5859375 C34.54447266 16.3078125 34.00886719 17.0296875 33.45703125 17.7734375 C32.96178955 18.41716309 32.46654785 19.06088867 31.95629883 19.72412109 C30.11405362 24.10844834 31.63259943 28.06739419 33.30688477 32.31738281 C33.84627686 33.43467773 34.38566895 34.55197266 34.94140625 35.703125 C35.22853989 36.3075946 35.51567352 36.91206421 35.81150818 37.53485107 C36.71964642 39.4442929 37.63996879 41.34747555 38.5625 43.25 C39.48725992 45.16737888 40.40915002 47.08596435 41.32420349 49.00799561 C42.15032888 50.74190973 42.98617035 52.47118469 43.82250977 54.20019531 C45 57 45 57 45 60 C39.06 60 33.12 60 27 60 C23.04 50.595 23.04 50.595 19 41 C18.01 41.495 18.01 41.495 17 42 C16.67 47.94 16.34 53.88 16 60 C10.72 60 5.44 60 0 60 C0 40.2 0 20.4 0 0 Z M2 2 C2 20.48 2 38.96 2 58 C5.96 58 9.92 58 14 58 C14.05607422 56.22882813 14.05607422 56.22882813 14.11328125 54.421875 C14.17895149 52.86455212 14.24539847 51.30726186 14.3125 49.75 C14.33505859 48.97269531 14.35761719 48.19539063 14.38085938 47.39453125 C14.58901976 42.96639215 14.87910645 40.38027076 18 37 C18 36.34 18 35.68 18 35 C18.66 35 19.32 35 20 35 C20.08121094 35.63292969 20.16242188 36.26585937 20.24609375 36.91796875 C21.31701211 41.2959718 23.19349625 45.22264205 25.0625 49.3125 C25.43955078 50.14845703 25.81660156 50.98441406 26.20507812 51.84570312 C27.1320978 53.89922771 28.06542765 55.94990166 29 58 C33.29 58 37.58 58 42 58 C39.37227433 49.40589721 35.59310768 41.51616235 31.67578125 33.44335938 C31.18980469 32.41404297 30.70382813 31.38472656 30.203125 30.32421875 C29.53265137 28.9333606 29.53265137 28.9333606 28.84863281 27.5144043 C27.90087051 24.70629039 27.86503826 23.69694897 29 21 C30.21508789 19.01708984 30.21508789 19.01708984 31.72265625 16.9609375 C32.26083984 16.21585938 32.79902344 15.47078125 33.35351562 14.703125 C33.91748047 13.93484375 34.48144531 13.1665625 35.0625 12.375 C36.18260868 10.84422718 37.29871202 9.31051284 38.41015625 7.7734375 C39.15471069 6.75902588 39.15471069 6.75902588 39.91430664 5.72412109 C41.17762031 4.05751235 41.17762031 4.05751235 41 2 C36.26700598 0.73973532 31.53792633 -0.21306613 27 2 C21.68238436 7.67024267 18.37548669 15.07592473 15 22 C14.67 15.4 14.34 8.8 14 2 C10.04 2 6.08 2 2 2 Z " fill="#66A958" transform="translate(131,217)"/>
<path d="M0 0 C12.87 0 25.74 0 39 0 C39 4.62 39 9.24 39 14 C31.41 14 23.82 14 16 14 C16 16.64 16 19.28 16 22 C22.27 22 28.54 22 35 22 C35 26.62 35 31.24 35 36 C28.73 36 22.46 36 16 36 C16 39.3 16 42.6 16 46 C23.59 46 31.18 46 39 46 C39 50.62 39 55.24 39 60 C26.13 60 13.26 60 0 60 C0 40.2 0 20.4 0 0 Z M2 2 C2 20.48 2 38.96 2 58 C13.22 58 24.44 58 36 58 C36 54.7 36 51.4 36 48 C28.74 48 21.48 48 14 48 C14 43.38 14 38.76 14 34 C20.27 34 26.54 34 33 34 C33 30.7 33 27.4 33 24 C26.73 24 20.46 24 14 24 C14 20.04 14 16.08 14 12 C21.26 12 28.52 12 36 12 C36 8.7 36 5.4 36 2 C24.78 2 13.56 2 2 2 Z " fill="#5EA44F" transform="translate(277,217)"/>
<path d="M0 0 C7.26 0 14.52 0 22 0 C22.43570313 1.80339844 22.87140625 3.60679687 23.3203125 5.46484375 C23.60575928 6.64618896 23.89120605 7.82753418 24.18530273 9.04467773 C24.81626248 11.65717354 25.44586364 14.2699919 26.07446289 16.88305664 C27.63182157 23.35373477 29.19912995 29.82134527 30.80078125 36.28125 C31.21529541 37.9674646 31.21529541 37.9674646 31.63818359 39.68774414 C32.16034707 41.81068796 32.68778949 43.93234223 33.22119141 46.05249023 C33.45628418 47.01356689 33.69137695 47.97464355 33.93359375 48.96484375 C34.14040771 49.7962085 34.34722168 50.62757324 34.56030273 51.48413086 C35 54 35 54 35 60 C29.39 60 23.78 60 18 60 C16 52 16 52 16 48 C12.7 48 9.4 48 6 48 C5.34 51.96 4.68 55.92 4 60 C-1.94 60 -7.88 60 -14 60 C-12.87501703 51.00013626 -12.87501703 51.00013626 -12.1237793 48.04101562 C-11.95657883 47.37251587 -11.78937836 46.70401611 -11.61711121 46.01525879 C-11.4379567 45.31928589 -11.25880219 44.62331299 -11.07421875 43.90625 C-10.88535599 43.15645874 -10.69649323 42.40666748 -10.50190735 41.63415527 C-9.90156641 39.25494806 -9.29471262 36.87746163 -8.6875 34.5 C-8.29187459 32.93761214 -7.89668923 31.37511278 -7.50195312 29.8125 C-6.72272153 26.7299106 -5.94111951 23.6479376 -5.15771484 20.56640625 C-3.41810192 13.71602561 -1.71051014 6.85769741 0 0 Z M2 2 C0.81409028 6.15068402 -0.33396712 10.22719309 -1.33203125 14.4140625 C-1.57099121 15.4129248 -1.80995117 16.41178711 -2.05615234 17.44091797 C-2.30574707 18.49166504 -2.5553418 19.54241211 -2.8125 20.625 C-3.07240723 21.71570801 -3.33231445 22.80641602 -3.60009766 23.93017578 C-4.13602768 26.17925521 -4.67150764 28.42844194 -5.20654297 30.67773438 C-5.96527829 33.85461754 -6.73287856 37.0292056 -7.50390625 40.203125 C-7.73553467 41.16138184 -7.96716309 42.11963867 -8.20581055 43.10693359 C-8.64358388 44.9177596 -9.08375469 46.72800811 -9.52661133 48.53759766 C-9.81894653 49.75261963 -9.81894653 49.75261963 -10.1171875 50.9921875 C-10.28847168 51.69714355 -10.45975586 52.40209961 -10.63623047 53.12841797 C-11.09539713 55.17304731 -11.09539713 55.17304731 -11 58 C-6.71 58 -2.42 58 2 58 C2.66 54.37 3.32 50.74 4 47 C8.62 46.67 13.24 46.34 18 46 C18.66 49.96 19.32 53.92 20 58 C24.29 58 28.58 58 33 58 C30.34549817 45.68377101 27.44486633 33.43353414 24.46264648 21.19262695 C22.90898215 14.80793616 21.39618095 8.42105003 20 2 C14.06 2 8.12 2 2 2 Z " fill="#62A653" transform="translate(34,217)"/>
<path d="M0 0 C2.5 1.6875 2.5 1.6875 4 4 C4 5.65 4 7.3 4 9 C7.96 9 11.92 9 16 9 C16 7.35 16 5.7 16 4 C16.33 4 16.66 4 17 4 C16.979375 4.969375 16.95875 5.93875 16.9375 6.9375 C16.64381501 9.87465895 16.64381501 9.87465895 18 11 C18 8.36 18 5.72 18 3 C18.33 3 18.66 3 19 3 C19 5.97 19 8.94 19 12 C13.06 12.495 13.06 12.495 7 13 C8.258125 13.7425 9.51625 14.485 10.8125 15.25 C15.12038496 17.94433087 17.37259349 20.11778048 19 25 C19.51765298 31.34124904 19.56930669 36.49731886 16 42 C14.875 38.25 14.875 38.25 16 36 C16.50873012 30.89601913 16.5276357 26.38190302 14.6875 21.5625 C9.14626357 16.2789955 1.26627227 14.79907763 -6.125 13.58984375 C-8.48012422 12.84896092 -9.50288764 11.95175692 -11 10 C-11.36248449 6.61681143 -11.58433618 4.13215135 -10 1.0625 C-6.76063399 -0.65841319 -3.52636345 -0.63857688 0 0 Z " fill="#63A755" transform="translate(102,228)"/>
<path d="M0 0 C5.28 0 10.56 0 16 0 C16 5.28 16 10.56 16 16 C16.66 16 17.32 16 18 16 C17.3405469 19.69293736 16.47070566 20.70572579 14 24 C14 16.74 14 9.48 14 2 C10.04 2 6.08 2 2 2 C2 20.48 2 38.96 2 58 C5.96 58 9.92 58 14 58 C14 53.05 14 48.1 14 43 C14.99 42.505 14.99 42.505 16 42 C16 47.94 16 53.88 16 60 C10.72 60 5.44 60 0 60 C0 40.2 0 20.4 0 0 Z " fill="#5FA550" transform="translate(131,217)"/>
<path d="M0 0 C7.26 0 14.52 0 22 0 C22 0.66 22 1.32 22 2 C15.4 2 8.8 2 2 2 C2 20.48 2 38.96 2 58 C6.29 58 10.58 58 15 58 C15 50.74 15 43.48 15 36 C15.33 36 15.66 36 16 36 C16 43.92 16 51.84 16 60 C10.72 60 5.44 60 0 60 C0 40.2 0 20.4 0 0 Z " fill="#56A046" transform="translate(205,217)"/>
<path d="M0 0 C2 1 2 1 2.77783203 3.31665039 C3.01872559 4.31688232 3.25961914 5.31711426 3.5078125 6.34765625 C3.77207031 7.42724609 4.03632813 8.50683594 4.30859375 9.61914062 C4.57800781 10.75544922 4.84742188 11.89175781 5.125 13.0625 C5.40214844 14.20267578 5.67929688 15.34285156 5.96484375 16.51757812 C6.6505981 19.343359 7.32861602 22.17077656 8 25 C9.5522417 22.12948363 10.50025617 19.44078741 11.25390625 16.26953125 C11.46853516 15.38458984 11.68316406 14.49964844 11.90429688 13.58789062 C12.12150391 12.67201172 12.33871094 11.75613281 12.5625 10.8125 C12.99812279 8.98491634 13.43676172 7.15804808 13.87890625 5.33203125 C14.0704126 4.52483643 14.26191895 3.7176416 14.45922852 2.88598633 C15 1 15 1 16 0 C17.56172745 -0.08685603 19.12729344 -0.10702219 20.69140625 -0.09765625 C21.63564453 -0.09443359 22.57988281 -0.09121094 23.55273438 -0.08789062 C24.54595703 -0.07951172 25.53917969 -0.07113281 26.5625 -0.0625 C27.55958984 -0.05798828 28.55667969 -0.05347656 29.58398438 -0.04882812 C32.05604849 -0.03700007 34.52799518 -0.02051849 37 0 C37 0.66 37 1.32 37 2 C30.4 2 23.8 2 17 2 C16.67 4.64 16.34 7.28 16 10 C15.56889188 12.01912603 15.1008174 14.03084253 14.58984375 16.03125 C14.32236328 17.08828125 14.05488281 18.1453125 13.77929688 19.234375 C13.50150391 20.31203125 13.22371094 21.3896875 12.9375 22.5 C12.65583984 23.60859375 12.37417969 24.7171875 12.08398438 25.859375 C11.39361604 28.5740437 10.69885625 31.28750638 10 34 C9.01 34 8.02 34 7 34 C5.84940471 29.7929539 4.70536736 25.58415141 3.5625 21.375 C3.23701172 20.18519531 2.91152344 18.99539062 2.57617188 17.76953125 C2.26357422 16.61582031 1.95097656 15.46210938 1.62890625 14.2734375 C1.34088135 13.21560059 1.05285645 12.15776367 0.75610352 11.06787109 C-1.3206823 2.64136461 -1.3206823 2.64136461 0 0 Z " fill="#67A959" transform="translate(227,217)"/>
<path d="M0 0 C0.66 0 1.32 0 2 0 C2 19.8 2 39.6 2 60 C-3.28 60 -8.56 60 -14 60 C-14 52.41 -14 44.82 -14 37 C-13.67 37 -13.34 37 -13 37 C-13 43.93 -13 50.86 -13 58 C-8.71 58 -4.42 58 0 58 C0 38.86 0 19.72 0 0 Z " fill="#539E43" transform="translate(264,217)"/>
<path d="M0 0 C0.44013811 1.82160638 0.88023237 3.64322336 1.3203125 5.46484375 C1.60583984 6.64651123 1.89136719 7.82817871 2.18554688 9.0456543 C2.81572027 11.65488838 3.44450721 14.26445146 4.07226562 16.87426758 C5.64152866 23.39489302 7.22166349 29.91219673 8.8359375 36.421875 C9.11679199 37.56406494 9.39764648 38.70625488 9.68701172 39.88305664 C10.22213486 42.0580992 10.76268391 44.23181518 11.30908203 46.40405273 C11.54739746 47.37802002 11.78571289 48.3519873 12.03125 49.35546875 C12.34932617 50.63393677 12.34932617 50.63393677 12.67382812 51.93823242 C13 54 13 54 12 56 C11.01 56.495 11.01 56.495 10 57 C7.81031456 47.65088792 5.62737957 38.30022614 3.45288086 28.9475708 C3.0281509 27.12106026 2.60295903 25.29465715 2.17773438 23.46826172 C1.46888701 20.41719581 0.76471749 17.36509761 0.0625 14.3125 C-0.14850342 13.40612793 -0.35950684 12.49975586 -0.5769043 11.56591797 C-0.86174683 10.32092529 -0.86174683 10.32092529 -1.15234375 9.05078125 C-1.31726318 8.33575439 -1.48218262 7.62072754 -1.65209961 6.8840332 C-2 5 -2 5 -2 2 C-7.94 2 -13.88 2 -20 2 C-20 1.67 -20 1.34 -20 1 C-17.04170322 0.832662 -14.08336635 0.66609948 -11.125 0.5 C-9.86236328 0.42845703 -9.86236328 0.42845703 -8.57421875 0.35546875 C-7.76855469 0.31035156 -6.96289062 0.26523438 -6.1328125 0.21875 C-5.38918457 0.17685547 -4.64555664 0.13496094 -3.87939453 0.09179688 C-2.58744125 0.0286929 -1.29349349 0 0 0 Z " fill="#6FAD61" transform="translate(56,217)"/>
<path d="M0 0 C1.93166016 0.01740234 1.93166016 0.01740234 3.90234375 0.03515625 C5.19269531 0.04417969 6.48304687 0.05320312 7.8125 0.0625 C8.81152344 0.07410156 9.81054688 0.08570313 10.83984375 0.09765625 C11.97748726 4.36381941 12.83984375 7.66251936 12.83984375 12.09765625 C17.12984375 12.09765625 21.41984375 12.09765625 25.83984375 12.09765625 C26.16984375 11.10765625 26.49984375 10.11765625 26.83984375 9.09765625 C27.33484375 11.57265625 27.33484375 11.57265625 27.83984375 14.09765625 C22.22984375 14.09765625 16.61984375 14.09765625 10.83984375 14.09765625 C8.83984375 6.09765625 8.83984375 6.09765625 8.83984375 2.09765625 C5.53984375 2.09765625 2.23984375 2.09765625 -1.16015625 2.09765625 C-1.82015625 6.05765625 -2.48015625 10.01765625 -3.16015625 14.09765625 C-9.10015625 14.09765625 -15.04015625 14.09765625 -21.16015625 14.09765625 C-21.16015625 13.43765625 -21.16015625 12.77765625 -21.16015625 12.09765625 C-15.88015625 12.09765625 -10.60015625 12.09765625 -5.16015625 12.09765625 C-5.01578125 10.30328125 -4.87140625 8.50890625 -4.72265625 6.66015625 C-4.19721755 0.12970388 -4.19721755 0.12970388 0 0 Z " fill="#58A149" transform="translate(41.16015625,262.90234375)"/>
<path d="M0 0 C0 1.98 0 3.96 0 6 C-2.63390925 7.72217143 -3.92411417 8.00455315 -7.125 7.8125 C-10 7 -10 7 -12 4 C-12 2.35 -12 0.7 -12 -1 C-17.28 -1 -22.56 -1 -28 -1 C-28 -1.33 -28 -1.66 -28 -2 C-7.72327044 -3.86163522 -7.72327044 -3.86163522 0 0 Z " fill="#F0F6EF" transform="translate(104,256)"/>
<path d="M0 0 C0.99 0 1.98 0 3 0 C6.44419134 12.48519362 6.44419134 12.48519362 6 19 C3.03 19 0.06 19 -3 19 C-2.68798326 16.95825942 -2.37536431 14.91661087 -2.0625 12.875 C-1.88847656 11.73804688 -1.71445312 10.60109375 -1.53515625 9.4296875 C-1.04410734 6.28267331 -0.52981281 3.14069217 0 0 Z " fill="#6FAE61" transform="translate(43,234)"/>
<path d="M0 0 C0.66 0 1.32 0 2 0 C5.04293103 10.60816272 7.85784618 21.16731971 10 32 C8.515 32.495 8.515 32.495 7 33 C5.35 26.07 3.7 19.14 2 12 C1.67 18.93 1.34 25.86 1 33 C0.67 33 0.34 33 0 33 C0 22.11 0 11.22 0 0 Z " fill="#63A754" transform="translate(219,242)"/>
<path d="M0 0 C3.0625 0.375 3.0625 0.375 4.9375 2 C6.33078383 4.94137697 6.28181821 7.15833296 6.0625 10.375 C4.41619672 10.23457123 2.77045821 10.08750671 1.125 9.9375 C-0.24978516 9.81568359 -0.24978516 9.81568359 -1.65234375 9.69140625 C-3.9375 9.375 -3.9375 9.375 -4.9375 8.375 C-5.125 5.4375 -5.125 5.4375 -4.9375 2.375 C-2.9375 0.375 -2.9375 0.375 0 0 Z " fill="#FAFCF9" transform="translate(97.9375,229.625)"/>
<path d="M0 0 C6.27 0 12.54 0 19 0 C17 2 17 2 13.5234375 2.1953125 C12.14049032 2.18201493 10.75761346 2.15816232 9.375 2.125 C8.66859375 2.11597656 7.9621875 2.10695312 7.234375 2.09765625 C5.48943902 2.07407603 3.74467705 2.03820461 2 2 C2 5.3 2 8.6 2 12 C8.6 12.33 15.2 12.66 22 13 C22 13.33 22 13.66 22 14 C14.74 14 7.48 14 0 14 C0 9.38 0 4.76 0 0 Z " fill="#6AAA5C" transform="translate(291,251)"/>
<path d="M0 0 C0.99 0.33 1.98 0.66 3 1 C0.80315508 11.03634737 -1.42525462 21.05212014 -4 31 C-4.99 31 -5.98 31 -7 31 C-6.74605469 29.93523437 -6.49210937 28.87046875 -6.23046875 27.7734375 C-4.03731731 18.53804688 -1.94373426 9.29163877 0 0 Z " fill="#6EAD60" transform="translate(27,244)"/>
<path d="M0 0 C5.42857143 -0.36190476 5.42857143 -0.36190476 7.875 1.1875 C9 3 9 3 9 8 C12.96 8 16.92 8 21 8 C21 6.35 21 4.7 21 3 C21.33 3 21.66 3 22 3 C21.979375 3.969375 21.95875 4.93875 21.9375 5.9375 C21.64381501 8.87465895 21.64381501 8.87465895 23 10 C23 7.36 23 4.72 23 2 C23.33 2 23.66 2 24 2 C24 4.97 24 7.94 24 11 C14.595 11.495 14.595 11.495 5 12 C5.66 11.67 6.32 11.34 7 11 C6.28757005 6.90302219 6.28757005 6.90302219 5 3 C2.51686936 1.40311361 2.51686936 1.40311361 0 1 C0 0.67 0 0.34 0 0 Z " fill="#81B876" transform="translate(97,229)"/>
<path d="M0 0 C2 1 2 1 2.79370117 3.28491211 C3.04095947 4.27241455 3.28821777 5.25991699 3.54296875 6.27734375 C3.81173828 7.34791016 4.08050781 8.41847656 4.35742188 9.52148438 C4.63134766 10.64876953 4.90527344 11.77605469 5.1875 12.9375 C5.47302734 14.06091797 5.75855469 15.18433594 6.05273438 16.34179688 C8.12886066 24.74227867 8.12886066 24.74227867 7 27 C6.34 27.33 5.68 27.66 5 28 C3.96377062 24.08724073 2.94871327 20.16929224 1.9375 16.25 C1.64294922 15.13882813 1.34839844 14.02765625 1.04492188 12.8828125 C0.77099609 11.81289062 0.49707031 10.74296875 0.21484375 9.640625 C-0.04176025 8.65610352 -0.29836426 7.67158203 -0.56274414 6.65722656 C-0.99725787 4.01666408 -0.87325 2.49796143 0 0 Z " fill="#76B26A" transform="translate(227,217)"/>
<path d="M0 0 C0.66 0 1.32 0 2 0 C3.56718383 3.40552526 5.09913741 6.82578484 6.625 10.25 C7.07101563 11.21808594 7.51703125 12.18617188 7.9765625 13.18359375 C8.5953125 14.58544922 8.5953125 14.58544922 9.2265625 16.015625 C9.61408691 16.87446289 10.00161133 17.73330078 10.40087891 18.61816406 C11 21 11 21 9 25 C6.36 18.73 3.72 12.46 1 6 C-0.65 6.66 -2.3 7.32 -4 8 C-2.87548273 5.0280615 -1.77706209 2.66559313 0 0 Z " fill="#67A959" transform="translate(149,252)"/>
<path d="M0 0 C5.28 0 10.56 0 16 0 C16.66 2.31 17.32 4.62 18 7 C21.00594421 8.53146378 21.00594421 8.53146378 24 9 C24 9.33 24 9.66 24 10 C20.38102827 10.32899743 18.60496861 10.44576634 15.625 8.25 C14 6 14 6 14 2 C10.04 2 6.08 2 2 2 C2 3.98 2 5.96 2 8 C1.34 8 0.68 8 0 8 C0 5.36 0 2.72 0 0 Z " fill="#58A148" transform="translate(76,255)"/>
<path d="M0 0 C6.6 0 13.2 0 20 0 C20 4.62 20 9.24 20 14 C18.68 13.67 17.36 13.34 16 13 C16.66 13 17.32 13 18 13 C18 9.37 18 5.74 18 2 C12.06 2 6.12 2 0 2 C0 1.34 0 0.68 0 0 Z " fill="#569F46" transform="translate(292,239)"/>
<path d="M0 0 C0.33 0 0.66 0 1 0 C1 5.94 1 11.88 1 18 C-4.28 18 -9.56 18 -15 18 C-15 17.34 -15 16.68 -15 16 C-10.38 16 -5.76 16 -1 16 C-1.01160156 14.92878906 -1.02320313 13.85757812 -1.03515625 12.75390625 C-1.04453299 11.35677257 -1.05363331 9.95963701 -1.0625 8.5625 C-1.07506836 7.50192383 -1.07506836 7.50192383 -1.08789062 6.41992188 C-1.09653588 4.61306441 -1.05220011 2.80612397 -1 1 C-0.67 0.67 -0.34 0.34 0 0 Z " fill="#539E43" transform="translate(146,259)"/>
<path d="M0 0 C3.92511435 0 6.00687247 0.11223374 8.98828125 2.77734375 C14.92387175 9.57316475 15.10499212 12.97067758 15 22 C10.05 22 5.1 22 0 22 C0 21.67 0 21.34 0 21 C4.62 21 9.24 21 14 21 C12.86345739 14.84372751 11.76749276 10.05637187 8 5 C5.44527029 3.34578804 2.83127388 2.10639586 0 1 C0 0.67 0 0.34 0 0 Z " fill="#5EA44F" transform="translate(105,217)"/>
<path d="M0 0 C3.12981912 0.33533776 4.00061159 1.00066401 6.1875 3.375 C9.75891348 8.54739193 9.52010327 13.91479171 9 20 C7.5 23.6875 7.5 23.6875 6 26 C4.875 22.25 4.875 22.25 6 20 C6.76303888 12.35700251 6.76303888 12.35700251 4.125 5.375 C2.22657332 2.95980151 2.22657332 2.95980151 0 2 C0 1.34 0 0.68 0 0 Z " fill="#63A755" transform="translate(112,244)"/>
<path d="M0 0 C3.65316671 1.24976756 4.78065836 1.67098753 7 5 C7.4375 7.4375 7.4375 7.4375 7 10 C4.08772497 13.26527806 2.58864097 13.96140059 -1.8125 14.25 C-2.864375 14.1675 -3.91625 14.085 -5 14 C-5 13.67 -5 13.34 -5 13 C-3.35 13 -1.7 13 0 13 C0 12.34 0 11.68 0 11 C0.99 10.67 1.98 10.34 3 10 C3.33 8.02 3.66 6.04 4 4 C2.68 3.67 1.36 3.34 0 3 C0 2.01 0 1.02 0 0 Z " fill="#7DB571" transform="translate(100,252)"/>
<path d="M0 0 C1.18239258 0.01353516 1.18239258 0.01353516 2.38867188 0.02734375 C4.32174666 0.05077496 6.2546638 0.08664162 8.1875 0.125 C7.8575 1.115 7.5275 2.105 7.1875 3.125 C5.90166016 3.09019531 5.90166016 3.09019531 4.58984375 3.0546875 C-2.48144929 2.94307746 -8.39855796 2.91802898 -14.8125 6.125 C-14.625 4.25 -14.625 4.25 -13.8125 2.125 C-9.35105468 -0.38456299 -4.95959902 -0.10808849 0 0 Z " fill="#6DAC5F" transform="translate(98.8125,215.875)"/>
<path d="M0 0 C0.99 0 1.98 0 3 0 C2.34 3.63 1.68 7.26 1 11 C2.32 11 3.64 11 5 11 C5.33 9.68 5.66 8.36 6 7 C6.33 8.98 6.66 10.96 7 13 C4.03 13 1.06 13 -2 13 C-1.34 8.71 -0.68 4.42 0 0 Z " fill="#569F46" transform="translate(42,240)"/>
<path d="M0 0 C0.66 0 1.32 0 2 0 C2 1.65 2 3.3 2 5 C-3.61 5 -9.22 5 -15 5 C-14.67 3.68 -14.34 2.36 -14 1 C-13.67 1.33 -13.34 1.66 -13 2 C-10.81707226 2.23481693 -8.62796826 2.41363323 -6.4375 2.5625 C-4.64119141 2.68818359 -4.64119141 2.68818359 -2.80859375 2.81640625 C-1.88175781 2.87699219 -0.95492187 2.93757813 0 3 C0 2.01 0 1.02 0 0 Z " fill="#58A148" transform="translate(242,272)"/>
<path d="M0 0 C0.66 0.33 1.32 0.66 2 1 C2 2.32 2 3.64 2 5 C-3.61 5 -9.22 5 -15 5 C-15 4.01 -15 3.02 -15 2 C-10.05 2.33 -5.1 2.66 0 3 C0 2.01 0 1.02 0 0 Z " fill="#549E44" transform="translate(67,272)"/>
<path d="M0 0 C0.99 0.33 1.98 0.66 3 1 C3.94921875 4.16015625 3.94921875 4.16015625 4.6875 8.0625 C4.93886719 9.35285156 5.19023437 10.64320313 5.44921875 11.97265625 C5.63097656 12.97167969 5.81273437 13.97070312 6 15 C5.01 15.33 4.02 15.66 3 16 C2.49411853 14.08487728 1.99551609 12.16783078 1.5 10.25 C1.2215625 9.18265625 0.943125 8.1153125 0.65625 7.015625 C0 4 0 4 0 0 Z " fill="#79B36C" transform="translate(223,259)"/>
<path d="M0 0 C4.62 0 9.24 0 14 0 C14.66 3.63 15.32 7.26 16 11 C15.01 11 14.02 11 13 11 C12.67 7.7 12.34 4.4 12 1 C8.04 1 4.08 1 0 1 C0 0.67 0 0.34 0 0 Z " fill="#76B169" transform="translate(38,263)"/>
<path d="M0 0 C0.99 0.33 1.98 0.66 3 1 C3 1.99 3 2.98 3 4 C-2.61 4 -8.22 4 -14 4 C-14 3.34 -14 2.68 -14 2 C-9.38 2 -4.76 2 0 2 C0 1.34 0 0.68 0 0 Z " fill="#559F45" transform="translate(173,273)"/>
<path d="M0 0 C6.6 0 13.2 0 20 0 C20 0.33 20 0.66 20 1 C14.06 1 8.12 1 2 1 C1.34 3.31 0.68 5.62 0 8 C-0.33 8 -0.66 8 -1 8 C-1.125 2.25 -1.125 2.25 0 0 Z " fill="#59A14A" transform="translate(34,217)"/>
<path d="M0 0 C0.99 0.33 1.98 0.66 3 1 C2.01 5.62 1.02 10.24 0 15 C-2.60329886 11.09505171 -1.80930803 8.37202275 -1 4 C-0.69830934 2.65915264 -0.38482319 1.3193938 0 0 Z " fill="#79B36D" transform="translate(27,244)"/>
<path d="M0 0 C4.29 0 8.58 0 13 0 C13 0.33 13 0.66 13 1 C9.7 1 6.4 1 3 1 C2.71125 2.134375 2.4225 3.26875 2.125 4.4375 C1.75375 5.613125 1.3825 6.78875 1 8 C0.01 8.495 0.01 8.495 -1 9 C-0.67 6.03 -0.34 3.06 0 0 Z " fill="#64A856" transform="translate(37,264)"/>
<path d="M0 0 C0.66 0.99 1.32 1.98 2 3 C-1.47908237 6.06977856 -4.42906548 8.00631858 -9 9 C-9.99 8.34 -10.98 7.68 -12 7 C-11.07767578 6.74476563 -11.07767578 6.74476563 -10.13671875 6.484375 C-5.02672252 5.0327103 -5.02672252 5.0327103 -0.9375 1.8125 C-0.628125 1.214375 -0.31875 0.61625 0 0 Z " fill="#6FAE62" transform="translate(116,268)"/>
<path d="M0 0 C0.66 0 1.32 0 2 0 C2.29341888 5.67276511 2.00559652 8.99067246 -1 14 C-2.13732426 10.59598052 -1.83989957 8.22543336 -1.0625 4.75 C-0.86785156 3.85796875 -0.67320313 2.9659375 -0.47265625 2.046875 C-0.31667969 1.37140625 -0.16070312 0.6959375 0 0 Z " fill="#5DA34E" transform="translate(119,256)"/>
<path d="M0 0 C0.66 0 1.32 0 2 0 C3.45184478 4.53701494 4.23509196 8.18061476 4 13 C3.34 12.67 2.68 12.34 2 12 C0.73238238 7.70418473 0 4.49055702 0 0 Z " fill="#66A958" transform="translate(57,232)"/>
<path d="M0 0 C5.94 0.99 5.94 0.99 12 2 C12 2.66 12 3.32 12 4 C10.56208484 3.85831863 9.1246763 3.71148957 7.6875 3.5625 C6.88699219 3.48128906 6.08648437 3.40007812 5.26171875 3.31640625 C3 3 3 3 0 2 C0 1.34 0 0.68 0 0 Z " fill="#5DA44E" transform="translate(88,250)"/>
<path d="M0 0 C2.12046792 3.53411321 2.53199289 6.94393835 3 11 C2.01 11 1.02 11 0 11 C-1.125 3.375 -1.125 3.375 0 0 Z " fill="#77B26B" transform="translate(61,242)"/>
<path d="M0 0 C0.33 0 0.66 0 1 0 C1.25 2.3125 1.25 2.3125 1 5 C-0.5625 6.8125 -0.5625 6.8125 -3 8 C-6.75 8.1875 -6.75 8.1875 -10 8 C-10 7.67 -10 7.34 -10 7 C-8.35 7 -6.7 7 -5 7 C-5 6.34 -5 5.68 -5 5 C-4.360625 4.731875 -3.72125 4.46375 -3.0625 4.1875 C-0.66868314 3.11332248 -0.66868314 3.11332248 0 0 Z " fill="#71AF64" transform="translate(105,258)"/>
<path d="M0 0 C0.99 0 1.98 0 3 0 C2.34 3.63 1.68 7.26 1 11 C0.34 10.34 -0.32 9.68 -1 9 C-0.9765625 6.8359375 -0.9765625 6.8359375 -0.625 4.375 C-0.51414063 3.55773437 -0.40328125 2.74046875 -0.2890625 1.8984375 C-0.19367187 1.27195313 -0.09828125 0.64546875 0 0 Z " fill="#6EAD60" transform="translate(42,240)"/>
<path d="M0 0 C6.4 -0.36923077 6.4 -0.36923077 9.4375 1.5 C9.953125 1.995 10.46875 2.49 11 3 C7.59068103 4.13643966 6.99664544 3.86747764 3.8125 2.5625 C3.09707031 2.27503906 2.38164063 1.98757812 1.64453125 1.69140625 C1.10183594 1.46324219 0.55914062 1.23507813 0 1 C0 0.67 0 0.34 0 0 Z " fill="#6FAE62" transform="translate(102,241)"/>
<path d="M0 0 C2.76223278 2.76223278 2.57856291 5.20706617 3 9 C1.68 9 0.36 9 -1 9 C-0.67 6.03 -0.34 3.06 0 0 Z " fill="#F6F9F5" transform="translate(44,242)"/>
<path d="M0 0 C0.99 0.33 1.98 0.66 3 1 C2.34 4.3 1.68 7.6 1 11 C-1.78637633 6.8204355 -0.79562512 4.85331323 0 0 Z " fill="#7CB570" transform="translate(32,223)"/>
<path d="M0 0 C2.12508244 3.18762365 2.5020163 5.26512223 3 9 C2.01 9.33 1.02 9.66 0 10 C-1.125 2.25 -1.125 2.25 0 0 Z " fill="#79B36C" transform="translate(66,264)"/>
<path d="M0 0 C0.99 0.495 0.99 0.495 2 1 C2 1.66 2 2.32 2 3 C2.66 3 3.32 3 4 3 C4 4.65 4 6.3 4 8 C3.01 8 2.02 8 1 8 C0.67 5.36 0.34 2.72 0 0 Z " fill="#59A14A" transform="translate(233,243)"/>
<path d="M0 0 C0 0.33 0 0.66 0 1 C-6.625 3 -6.625 3 -10 3 C-10 2.34 -10 1.68 -10 1 C-6.78548731 -0.60725635 -3.56387464 -0.05748185 0 0 Z " fill="#74B067" transform="translate(102,228)"/>
<path d="M0 0 C1.20628008 2.33214148 2.1654738 4.49642139 3 7 C2.01 7 1.02 7 0 7 C-0.66 5.02 -1.32 3.04 -2 1 C-1.34 0.67 -0.68 0.34 0 0 Z " fill="#75B168" transform="translate(78,262)"/>
<path d="M0 0 C0.66 0.33 1.32 0.66 2 1 C2.625 4.0625 2.625 4.0625 3 7 C2.01 7.33 1.02 7.66 0 8 C-1.125 2.25 -1.125 2.25 0 0 Z " fill="#7FB673" transform="translate(227,217)"/>
</svg>
